<svg width="18" height="18" viewBox="0 0 18 18" fill="none" xmlns="http://www.w3.org/2000/svg">
<path d="M14.2579 1.69556C12.6915 0.56804 10.8041 -0.0260771 8.8743 0.000877806C6.94449 0.0278328 5.07447 0.674432 3.54018 1.84526L9 9L14.2579 1.69556Z" fill="white"/>
<path d="M16.3044 14.2579C17.432 12.6915 18.0261 10.8041 17.9991 8.8743C17.9722 6.94449 17.3256 5.07447 16.1547 3.54018L9 9L16.3044 14.2579Z" fill="#1DCC00"/>
<path d="M1.69556 3.74214C0.56804 5.30854 -0.026077 7.19589 0.000877911 9.1257C0.0278328 11.0555 0.674432 12.9255 1.84526 14.4598L9 9L1.69556 3.74214Z" fill="#FF0000"/>
<path d="M3.74214 16.3044C5.30854 17.432 7.19589 18.0261 9.1257 17.9991C11.0555 17.9722 12.9255 17.3256 14.4598 16.1547L9 9L3.74214 16.3044Z" fill="black"/>
</svg>
