<svg width="18" height="18" viewBox="0 0 18 18" fill="none" xmlns="http://www.w3.org/2000/svg">
<path d="M15.4287 9.00001C15.4287 12.5504 12.5505 15.4286 9.0001 15.4286C5.4497 15.4286 2.57153 12.5504 2.57153 9.00001C2.57153 5.44961 5.4497 2.57144 9.0001 2.57144C12.5505 2.57144 15.4287 5.44961 15.4287 9.00001ZM4.69905 9.00001C4.69905 11.3754 6.6247 13.3011 9.0001 13.3011C11.3755 13.3011 13.3012 11.3754 13.3012 9.00001C13.3012 6.6246 11.3755 4.69895 9.0001 4.69895C6.6247 4.69895 4.69905 6.6246 4.69905 9.00001Z" fill="white"/>
<rect x="7.71436" width="2.57143" height="4.28571" fill="white"/>
<rect x="7.71436" y="13.7143" width="2.57143" height="4.28571" fill="white"/>
<rect x="18" y="7.71431" width="2.57143" height="4.28571" transform="rotate(90 18 7.71431)" fill="white"/>
<rect x="15.0305" y="1.71426" width="2.57143" height="4.28571" transform="rotate(45 15.0305 1.71426)" fill="white"/>
<rect x="4.74487" y="12" width="2.57143" height="4.28571" transform="rotate(45 4.74487 12)" fill="white"/>
<rect x="4.28589" y="7.71431" width="2.57143" height="4.28571" transform="rotate(90 4.28589 7.71431)" fill="white"/>
<rect x="6.56299" y="4.74472" width="2.57143" height="4.28571" transform="rotate(135 6.56299 4.74472)" fill="white"/>
<rect x="16.8486" y="15.0305" width="2.57143" height="4.28571" transform="rotate(135 16.8486 15.0305)" fill="white"/>
</svg>
